# xmcd CD database file
#
# Track frame offsets:
#	150
#	16375
#	35927
#	52100
#	74652
#	91257
#	113622
#	126770
#	139330
#	154525
#	171855
#	196912
#	210287
#	227780
#	241084
#	254397
#	266512
#
# Disc length: 3668 seconds
#
# Revision: 3
# Processed by: cddbd v1.5.1PL0 Copyright (c) Steve Scherf et al.
# Submitted via: CDex 1.51
#
DISCID=ee0e5211
DTITLE=Edu Lobo and Chico Buarque - Album de Teatro
DYEAR=1997
DGENRE=MPB
TTITLE0=Na Carreira
TTITLE1=A Historia de Lily Braun
TTITLE2=Na lha de Lia, No Barco de Rosa
TTITLE3=Beatriz
TTITLE4=O Circo Mistico
TTITLE5=Sobre Todas As Coisas
TTITLE6=A Mulher de Cada Porto
TTITLE7=Meia - Noite
TTITLE8=A Bela e A Fera
TTITLE9=A Permuta dos Santos
TTITLE10=Bancarrota Blues
TTITLE11=Valsa Brasileira
TTITLE12=Acalanto
TTITLE13=Tororo
TTITLE14=Choro Bandido
TTITLE15=Salmo
TTITLE16=Oremus
EXTD=YEAR: 1997
EXTT0=
EXTT1=
EXTT2=
EXTT3=
EXTT4=
EXTT5=
EXTT6=
EXTT7=
EXTT8=
EXTT9=
EXTT10=
EXTT11=
EXTT12=
EXTT13=
EXTT14=
EXTT15=
EXTT16=
PLAYORDER=
